<?xml version="1.0" standalone="no"?>
<!DOCTYPE svg PUBLIC "-//W3C//DTD SVG 20010904//EN"
 "http://www.w3.org/TR/2001/REC-SVG-20010904/DTD/svg10.dtd">
<svg version="1.0" xmlns="http://www.w3.org/2000/svg"
 width="260.000000pt" height="260.000000pt" viewBox="0 0 260.000000 260.000000"
 preserveAspectRatio="xMidYMid meet">
<metadata>
Created by potrace 1.14, written by Peter Selinger 2001-2017
</metadata>
<g transform="translate(0.000000,260.000000) scale(0.100000,-0.100000)"
fill="#000000" stroke="none">
<path d="M705 1913 c-295 -60 -487 -319 -494 -665 -7 -327 155 -508 453 -508
205 0 386 115 485 308 30 59 38 83 29 87 -14 5 -201 35 -218 35 -6 0 -22 -24
-36 -54 -52 -110 -144 -171 -254 -170 -67 0 -120 23 -162 71 -86 96 -82 327 9
506 72 142 218 219 354 187 64 -16 111 -61 134 -130 l17 -52 72 7 c83 8 150
16 153 19 6 6 -29 121 -48 157 -46 91 -143 166 -250 194 -45 12 -199 17 -244
8z"/>
<path d="M1855 1913 c-187 -42 -325 -149 -410 -318 -66 -132 -79 -193 -79
-365 0 -125 3 -154 23 -209 51 -145 152 -238 292 -270 65 -15 197 -13 263 4
153 40 280 145 354 293 29 57 38 84 29 87 -13 5 -201 35 -217 35 -5 0 -21 -24
-34 -52 -46 -97 -127 -159 -227 -173 -96 -14 -187 41 -229 137 -61 141 -6 406
110 532 54 59 136 99 206 102 116 5 187 -39 219 -136 l17 -52 74 7 c40 4 81 8
91 10 10 2 28 4 39 4 20 1 21 4 13 48 -29 153 -137 267 -294 308 -55 14 -193
19 -240 8z"/>
</g>
</svg>
